<mxfile host="app.diagrams.net" agent="Mozilla/5.0 (Windows NT 10.0; Win64; x64) AppleWebKit/537.36 (KHTML, like Gecko) Chrome/133.0.0.0 Safari/537.36" version="26.0.12">
  <diagram name="Page-1" id="42789a77-a242-8287-6e28-9cd8cfd52e62">
    <mxGraphModel dx="3968" dy="2650" grid="1" gridSize="10" guides="1" tooltips="1" connect="1" arrows="1" fold="1" page="1" pageScale="1" pageWidth="1100" pageHeight="850" background="none" math="0" shadow="0">
      <root>
        <mxCell id="0" />
        <mxCell id="1" parent="0" />
        <mxCell id="1ea317790d2ca983-12" style="edgeStyle=none;rounded=1;html=1;labelBackgroundColor=none;startArrow=none;startFill=0;startSize=5;endArrow=classicThin;endFill=1;endSize=5;jettySize=auto;orthogonalLoop=1;strokeColor=#B3B3B3;strokeWidth=1;fontFamily=Verdana;fontSize=12" parent="1" source="1ea317790d2ca983-1" target="1ea317790d2ca983-2" edge="1">
          <mxGeometry relative="1" as="geometry" />
        </mxCell>
        <mxCell id="1ea317790d2ca983-1" value="Mapa" style="ellipse;whiteSpace=wrap;html=1;rounded=0;shadow=1;comic=0;labelBackgroundColor=none;strokeWidth=1;fontFamily=Verdana;fontSize=12;align=center;" parent="1" vertex="1">
          <mxGeometry x="450" y="80" width="90" height="60" as="geometry" />
        </mxCell>
        <mxCell id="1ea317790d2ca983-22" value="relation" style="edgeStyle=none;rounded=1;html=1;labelBackgroundColor=none;startArrow=none;startFill=0;startSize=5;endArrow=classicThin;endFill=1;endSize=5;jettySize=auto;orthogonalLoop=1;strokeColor=#B3B3B3;strokeWidth=1;fontFamily=Verdana;fontSize=12" parent="1" source="1ea317790d2ca983-2" target="1ea317790d2ca983-6" edge="1">
          <mxGeometry relative="1" as="geometry" />
        </mxCell>
        <mxCell id="1ea317790d2ca983-2" value="exit z města" style="ellipse;whiteSpace=wrap;html=1;rounded=0;shadow=1;comic=0;labelBackgroundColor=none;strokeWidth=1;fontFamily=Verdana;fontSize=12;align=center;" parent="1" vertex="1">
          <mxGeometry x="457.5" y="190" width="75" height="50" as="geometry" />
        </mxCell>
        <mxCell id="1ea317790d2ca983-23" value="relation" style="edgeStyle=none;rounded=1;html=1;labelBackgroundColor=none;startArrow=none;startFill=0;startSize=5;endArrow=classicThin;endFill=1;endSize=5;jettySize=auto;orthogonalLoop=1;strokeColor=#B3B3B3;strokeWidth=1;fontFamily=Verdana;fontSize=12" parent="1" source="1ea317790d2ca983-6" edge="1">
          <mxGeometry relative="1" as="geometry">
            <mxPoint x="495" y="510" as="targetPoint" />
          </mxGeometry>
        </mxCell>
        <mxCell id="hZ7IqxDS2PE7dQ3aLx0Q-6" style="edgeStyle=orthogonalEdgeStyle;rounded=0;orthogonalLoop=1;jettySize=auto;html=1;entryX=0;entryY=0.5;entryDx=0;entryDy=0;" edge="1" parent="1" source="1ea317790d2ca983-6">
          <mxGeometry relative="1" as="geometry">
            <mxPoint x="699.9999999999836" y="345" as="targetPoint" />
          </mxGeometry>
        </mxCell>
        <mxCell id="hZ7IqxDS2PE7dQ3aLx0Q-7" style="edgeStyle=orthogonalEdgeStyle;rounded=0;orthogonalLoop=1;jettySize=auto;html=1;entryX=1;entryY=0.5;entryDx=0;entryDy=0;" edge="1" parent="1" source="1ea317790d2ca983-6" target="1ea317790d2ca983-10">
          <mxGeometry relative="1" as="geometry" />
        </mxCell>
        <mxCell id="1ea317790d2ca983-6" value="&lt;span&gt;rozcestí&lt;/span&gt;" style="ellipse;whiteSpace=wrap;html=1;rounded=0;shadow=1;comic=0;labelBackgroundColor=none;strokeWidth=1;fontFamily=Verdana;fontSize=12;align=center;" parent="1" vertex="1">
          <mxGeometry x="457.5" y="320" width="75" height="50" as="geometry" />
        </mxCell>
        <mxCell id="hZ7IqxDS2PE7dQ3aLx0Q-8" style="edgeStyle=orthogonalEdgeStyle;rounded=0;orthogonalLoop=1;jettySize=auto;html=1;entryX=0.5;entryY=1;entryDx=0;entryDy=0;" edge="1" parent="1" source="1ea317790d2ca983-10" target="1ea317790d2ca983-11">
          <mxGeometry relative="1" as="geometry" />
        </mxCell>
        <mxCell id="1ea317790d2ca983-10" value="&lt;span&gt;Les&lt;/span&gt;" style="ellipse;whiteSpace=wrap;html=1;rounded=0;shadow=1;comic=0;labelBackgroundColor=none;strokeWidth=1;fontFamily=Verdana;fontSize=12;align=center;" parent="1" vertex="1">
          <mxGeometry x="210" y="320" width="75" height="50" as="geometry" />
        </mxCell>
        <mxCell id="hZ7IqxDS2PE7dQ3aLx0Q-10" style="edgeStyle=orthogonalEdgeStyle;rounded=0;orthogonalLoop=1;jettySize=auto;html=1;entryX=1;entryY=0.5;entryDx=0;entryDy=0;" edge="1" parent="1" source="1ea317790d2ca983-11" target="hZ7IqxDS2PE7dQ3aLx0Q-9">
          <mxGeometry relative="1" as="geometry" />
        </mxCell>
        <mxCell id="1ea317790d2ca983-11" value="Hluboký les" style="ellipse;whiteSpace=wrap;html=1;rounded=0;shadow=1;comic=0;labelBackgroundColor=none;strokeWidth=1;fontFamily=Verdana;fontSize=12;align=center;" parent="1" vertex="1">
          <mxGeometry x="200" y="220" width="75" height="50" as="geometry" />
        </mxCell>
        <mxCell id="hZ7IqxDS2PE7dQ3aLx0Q-5" style="edgeStyle=orthogonalEdgeStyle;rounded=0;orthogonalLoop=1;jettySize=auto;html=1;entryX=1;entryY=0.5;entryDx=0;entryDy=0;" edge="1" parent="1" source="hZ7IqxDS2PE7dQ3aLx0Q-1" target="1ea317790d2ca983-1">
          <mxGeometry relative="1" as="geometry" />
        </mxCell>
        <mxCell id="hZ7IqxDS2PE7dQ3aLx0Q-1" value="&lt;span&gt;Dům&lt;/span&gt;" style="ellipse;whiteSpace=wrap;html=1;rounded=0;shadow=1;comic=0;labelBackgroundColor=none;strokeWidth=1;fontFamily=Verdana;fontSize=12;align=center;" vertex="1" parent="1">
          <mxGeometry x="710" y="70" width="75" height="50" as="geometry" />
        </mxCell>
        <mxCell id="hZ7IqxDS2PE7dQ3aLx0Q-2" value="Obchod" style="ellipse;whiteSpace=wrap;html=1;rounded=0;shadow=1;comic=0;labelBackgroundColor=none;strokeWidth=1;fontFamily=Verdana;fontSize=12;align=center;" vertex="1" parent="1">
          <mxGeometry x="560" y="-20" width="75" height="50" as="geometry" />
        </mxCell>
        <mxCell id="hZ7IqxDS2PE7dQ3aLx0Q-4" value="" style="endArrow=none;html=1;rounded=0;entryX=0;entryY=1;entryDx=0;entryDy=0;exitX=1;exitY=0;exitDx=0;exitDy=0;" edge="1" parent="1" source="1ea317790d2ca983-1" target="hZ7IqxDS2PE7dQ3aLx0Q-2">
          <mxGeometry width="50" height="50" relative="1" as="geometry">
            <mxPoint x="520" y="390" as="sourcePoint" />
            <mxPoint x="570" y="340" as="targetPoint" />
          </mxGeometry>
        </mxCell>
        <mxCell id="hZ7IqxDS2PE7dQ3aLx0Q-47" style="edgeStyle=orthogonalEdgeStyle;rounded=0;orthogonalLoop=1;jettySize=auto;html=1;entryX=1;entryY=0.5;entryDx=0;entryDy=0;" edge="1" parent="1" source="hZ7IqxDS2PE7dQ3aLx0Q-9" target="hZ7IqxDS2PE7dQ3aLx0Q-26">
          <mxGeometry relative="1" as="geometry" />
        </mxCell>
        <mxCell id="hZ7IqxDS2PE7dQ3aLx0Q-9" value="Lesní potok" style="ellipse;whiteSpace=wrap;html=1;rounded=0;shadow=1;comic=0;labelBackgroundColor=none;strokeWidth=1;fontFamily=Verdana;fontSize=12;align=center;" vertex="1" parent="1">
          <mxGeometry x="80" y="220" width="75" height="50" as="geometry" />
        </mxCell>
        <mxCell id="hZ7IqxDS2PE7dQ3aLx0Q-38" style="edgeStyle=orthogonalEdgeStyle;rounded=0;orthogonalLoop=1;jettySize=auto;html=1;entryX=0;entryY=0.5;entryDx=0;entryDy=0;" edge="1" parent="1" source="hZ7IqxDS2PE7dQ3aLx0Q-11" target="hZ7IqxDS2PE7dQ3aLx0Q-25">
          <mxGeometry relative="1" as="geometry" />
        </mxCell>
        <mxCell id="hZ7IqxDS2PE7dQ3aLx0Q-50" style="edgeStyle=orthogonalEdgeStyle;rounded=0;orthogonalLoop=1;jettySize=auto;html=1;entryX=0.5;entryY=0;entryDx=0;entryDy=0;" edge="1" parent="1" source="hZ7IqxDS2PE7dQ3aLx0Q-11" target="hZ7IqxDS2PE7dQ3aLx0Q-14">
          <mxGeometry relative="1" as="geometry" />
        </mxCell>
        <mxCell id="hZ7IqxDS2PE7dQ3aLx0Q-11" value="Karmínová louka" style="ellipse;whiteSpace=wrap;html=1;rounded=0;shadow=1;comic=0;labelBackgroundColor=none;strokeWidth=1;fontFamily=Verdana;fontSize=12;align=center;" vertex="1" parent="1">
          <mxGeometry x="-185" y="-50" width="75" height="50" as="geometry" />
        </mxCell>
        <mxCell id="hZ7IqxDS2PE7dQ3aLx0Q-51" style="edgeStyle=orthogonalEdgeStyle;rounded=0;orthogonalLoop=1;jettySize=auto;html=1;entryX=0.5;entryY=1;entryDx=0;entryDy=0;" edge="1" parent="1" source="hZ7IqxDS2PE7dQ3aLx0Q-12" target="hZ7IqxDS2PE7dQ3aLx0Q-14">
          <mxGeometry relative="1" as="geometry" />
        </mxCell>
        <mxCell id="hZ7IqxDS2PE7dQ3aLx0Q-12" value="stepní flétny" style="ellipse;whiteSpace=wrap;html=1;rounded=0;shadow=1;comic=0;labelBackgroundColor=none;strokeWidth=1;fontFamily=Verdana;fontSize=12;align=center;" vertex="1" parent="1">
          <mxGeometry x="-230" y="110" width="75" height="50" as="geometry" />
        </mxCell>
        <mxCell id="hZ7IqxDS2PE7dQ3aLx0Q-52" style="edgeStyle=orthogonalEdgeStyle;rounded=0;orthogonalLoop=1;jettySize=auto;html=1;entryX=0;entryY=0.5;entryDx=0;entryDy=0;" edge="1" parent="1" source="hZ7IqxDS2PE7dQ3aLx0Q-13" target="hZ7IqxDS2PE7dQ3aLx0Q-14">
          <mxGeometry relative="1" as="geometry" />
        </mxCell>
        <mxCell id="hZ7IqxDS2PE7dQ3aLx0Q-13" value="nekonečná step" style="ellipse;whiteSpace=wrap;html=1;rounded=0;shadow=1;comic=0;labelBackgroundColor=none;strokeWidth=1;fontFamily=Verdana;fontSize=12;align=center;" vertex="1" parent="1">
          <mxGeometry x="-470" y="110" width="75" height="50" as="geometry" />
        </mxCell>
        <mxCell id="hZ7IqxDS2PE7dQ3aLx0Q-14" value="Bouřná step" style="ellipse;whiteSpace=wrap;html=1;rounded=0;shadow=1;comic=0;labelBackgroundColor=none;strokeWidth=1;fontFamily=Verdana;fontSize=12;align=center;" vertex="1" parent="1">
          <mxGeometry x="-340" y="10" width="75" height="50" as="geometry" />
        </mxCell>
        <mxCell id="hZ7IqxDS2PE7dQ3aLx0Q-15" value="Slza minulosti" style="ellipse;whiteSpace=wrap;html=1;rounded=0;shadow=1;comic=0;labelBackgroundColor=none;strokeWidth=1;fontFamily=Verdana;fontSize=12;align=center;" vertex="1" parent="1">
          <mxGeometry x="457.5" y="730" width="75" height="50" as="geometry" />
        </mxCell>
        <mxCell id="hZ7IqxDS2PE7dQ3aLx0Q-59" style="edgeStyle=orthogonalEdgeStyle;rounded=0;orthogonalLoop=1;jettySize=auto;html=1;entryX=0.5;entryY=1;entryDx=0;entryDy=0;" edge="1" parent="1" source="hZ7IqxDS2PE7dQ3aLx0Q-16" target="hZ7IqxDS2PE7dQ3aLx0Q-58">
          <mxGeometry relative="1" as="geometry" />
        </mxCell>
        <mxCell id="hZ7IqxDS2PE7dQ3aLx0Q-16" value="Stará svatyně" style="ellipse;whiteSpace=wrap;html=1;rounded=0;shadow=1;comic=0;labelBackgroundColor=none;strokeWidth=1;fontFamily=Verdana;fontSize=12;align=center;" vertex="1" parent="1">
          <mxGeometry x="90" y="710" width="75" height="50" as="geometry" />
        </mxCell>
        <mxCell id="hZ7IqxDS2PE7dQ3aLx0Q-17" value="Pozůstatky staré vesnice" style="ellipse;whiteSpace=wrap;html=1;rounded=0;shadow=1;comic=0;labelBackgroundColor=none;strokeWidth=1;fontFamily=Verdana;fontSize=12;align=center;" vertex="1" parent="1">
          <mxGeometry x="340" y="730" width="75" height="50" as="geometry" />
        </mxCell>
        <mxCell id="hZ7IqxDS2PE7dQ3aLx0Q-18" value="Rozbořený chrám" style="ellipse;whiteSpace=wrap;html=1;rounded=0;shadow=1;comic=0;labelBackgroundColor=none;strokeWidth=1;fontFamily=Verdana;fontSize=12;align=center;" vertex="1" parent="1">
          <mxGeometry x="-60" y="710" width="75" height="50" as="geometry" />
        </mxCell>
        <mxCell id="hZ7IqxDS2PE7dQ3aLx0Q-54" style="edgeStyle=orthogonalEdgeStyle;rounded=0;orthogonalLoop=1;jettySize=auto;html=1;entryX=0;entryY=0;entryDx=0;entryDy=0;" edge="1" parent="1" source="hZ7IqxDS2PE7dQ3aLx0Q-19" target="hZ7IqxDS2PE7dQ3aLx0Q-14">
          <mxGeometry relative="1" as="geometry" />
        </mxCell>
        <mxCell id="hZ7IqxDS2PE7dQ3aLx0Q-19" value="Věž" style="ellipse;whiteSpace=wrap;html=1;rounded=0;shadow=1;comic=0;labelBackgroundColor=none;strokeWidth=1;fontFamily=Verdana;fontSize=12;align=center;" vertex="1" parent="1">
          <mxGeometry x="-500" y="-110" width="75" height="50" as="geometry" />
        </mxCell>
        <mxCell id="hZ7IqxDS2PE7dQ3aLx0Q-20" value="Rozvaliny hradu Macindawu" style="ellipse;whiteSpace=wrap;html=1;rounded=0;shadow=1;comic=0;labelBackgroundColor=none;strokeWidth=1;fontFamily=Verdana;fontSize=12;align=center;" vertex="1" parent="1">
          <mxGeometry x="-540" y="260" width="75" height="50" as="geometry" />
        </mxCell>
        <mxCell id="hZ7IqxDS2PE7dQ3aLx0Q-33" style="edgeStyle=orthogonalEdgeStyle;rounded=0;orthogonalLoop=1;jettySize=auto;html=1;entryX=0.5;entryY=0;entryDx=0;entryDy=0;" edge="1" parent="1" source="hZ7IqxDS2PE7dQ3aLx0Q-21" target="hZ7IqxDS2PE7dQ3aLx0Q-9">
          <mxGeometry relative="1" as="geometry" />
        </mxCell>
        <mxCell id="hZ7IqxDS2PE7dQ3aLx0Q-49" style="edgeStyle=orthogonalEdgeStyle;rounded=0;orthogonalLoop=1;jettySize=auto;html=1;entryX=1;entryY=0.5;entryDx=0;entryDy=0;" edge="1" parent="1" source="hZ7IqxDS2PE7dQ3aLx0Q-21" target="hZ7IqxDS2PE7dQ3aLx0Q-12">
          <mxGeometry relative="1" as="geometry" />
        </mxCell>
        <mxCell id="hZ7IqxDS2PE7dQ3aLx0Q-21" value="Stříbrná řeka" style="ellipse;whiteSpace=wrap;html=1;rounded=0;shadow=1;comic=0;labelBackgroundColor=none;strokeWidth=1;fontFamily=Verdana;fontSize=12;align=center;" vertex="1" parent="1">
          <mxGeometry x="70" y="130" width="75" height="50" as="geometry" />
        </mxCell>
        <mxCell id="hZ7IqxDS2PE7dQ3aLx0Q-34" style="edgeStyle=orthogonalEdgeStyle;rounded=0;orthogonalLoop=1;jettySize=auto;html=1;entryX=0.5;entryY=0;entryDx=0;entryDy=0;" edge="1" parent="1" source="hZ7IqxDS2PE7dQ3aLx0Q-22" target="hZ7IqxDS2PE7dQ3aLx0Q-21">
          <mxGeometry relative="1" as="geometry" />
        </mxCell>
        <mxCell id="hZ7IqxDS2PE7dQ3aLx0Q-22" value="Zrcadlové jezero" style="ellipse;whiteSpace=wrap;html=1;rounded=0;shadow=1;comic=0;labelBackgroundColor=none;strokeWidth=1;fontFamily=Verdana;fontSize=12;align=center;" vertex="1" parent="1">
          <mxGeometry x="30" y="40" width="75" height="50" as="geometry" />
        </mxCell>
        <mxCell id="hZ7IqxDS2PE7dQ3aLx0Q-35" style="edgeStyle=orthogonalEdgeStyle;rounded=0;orthogonalLoop=1;jettySize=auto;html=1;entryX=1;entryY=0.5;entryDx=0;entryDy=0;" edge="1" parent="1" source="hZ7IqxDS2PE7dQ3aLx0Q-23" target="hZ7IqxDS2PE7dQ3aLx0Q-21">
          <mxGeometry relative="1" as="geometry" />
        </mxCell>
        <mxCell id="hZ7IqxDS2PE7dQ3aLx0Q-23" value="Hvozd" style="ellipse;whiteSpace=wrap;html=1;rounded=0;shadow=1;comic=0;labelBackgroundColor=none;strokeWidth=1;fontFamily=Verdana;fontSize=12;align=center;" vertex="1" parent="1">
          <mxGeometry x="190" y="130" width="75" height="50" as="geometry" />
        </mxCell>
        <mxCell id="hZ7IqxDS2PE7dQ3aLx0Q-36" style="edgeStyle=orthogonalEdgeStyle;rounded=0;orthogonalLoop=1;jettySize=auto;html=1;entryX=0.5;entryY=0;entryDx=0;entryDy=0;" edge="1" parent="1" source="hZ7IqxDS2PE7dQ3aLx0Q-24" target="hZ7IqxDS2PE7dQ3aLx0Q-23">
          <mxGeometry relative="1" as="geometry" />
        </mxCell>
        <mxCell id="hZ7IqxDS2PE7dQ3aLx0Q-24" value="Prales" style="ellipse;whiteSpace=wrap;html=1;rounded=0;shadow=1;comic=0;labelBackgroundColor=none;strokeWidth=1;fontFamily=Verdana;fontSize=12;align=center;" vertex="1" parent="1">
          <mxGeometry x="190" y="10" width="75" height="50" as="geometry" />
        </mxCell>
        <mxCell id="hZ7IqxDS2PE7dQ3aLx0Q-37" style="edgeStyle=orthogonalEdgeStyle;rounded=0;orthogonalLoop=1;jettySize=auto;html=1;entryX=0.5;entryY=0;entryDx=0;entryDy=0;" edge="1" parent="1" source="hZ7IqxDS2PE7dQ3aLx0Q-25" target="hZ7IqxDS2PE7dQ3aLx0Q-24">
          <mxGeometry relative="1" as="geometry" />
        </mxCell>
        <mxCell id="hZ7IqxDS2PE7dQ3aLx0Q-25" value="Karmínový hájek" style="ellipse;whiteSpace=wrap;html=1;rounded=0;shadow=1;comic=0;labelBackgroundColor=none;strokeWidth=1;fontFamily=Verdana;fontSize=12;align=center;" vertex="1" parent="1">
          <mxGeometry y="-60" width="75" height="50" as="geometry" />
        </mxCell>
        <mxCell id="hZ7IqxDS2PE7dQ3aLx0Q-48" style="edgeStyle=orthogonalEdgeStyle;rounded=0;orthogonalLoop=1;jettySize=auto;html=1;entryX=0.5;entryY=1;entryDx=0;entryDy=0;" edge="1" parent="1" source="hZ7IqxDS2PE7dQ3aLx0Q-26" target="hZ7IqxDS2PE7dQ3aLx0Q-12">
          <mxGeometry relative="1" as="geometry" />
        </mxCell>
        <mxCell id="hZ7IqxDS2PE7dQ3aLx0Q-26" value="klečovitá mez" style="ellipse;whiteSpace=wrap;html=1;rounded=0;shadow=1;comic=0;labelBackgroundColor=none;strokeWidth=1;fontFamily=Verdana;fontSize=12;align=center;" vertex="1" parent="1">
          <mxGeometry x="-110" y="230" width="75" height="50" as="geometry" />
        </mxCell>
        <mxCell id="hZ7IqxDS2PE7dQ3aLx0Q-41" style="edgeStyle=orthogonalEdgeStyle;rounded=0;orthogonalLoop=1;jettySize=auto;html=1;entryX=0.5;entryY=0;entryDx=0;entryDy=0;" edge="1" parent="1" source="hZ7IqxDS2PE7dQ3aLx0Q-27" target="hZ7IqxDS2PE7dQ3aLx0Q-40">
          <mxGeometry relative="1" as="geometry" />
        </mxCell>
        <mxCell id="hZ7IqxDS2PE7dQ3aLx0Q-55" style="edgeStyle=orthogonalEdgeStyle;rounded=0;orthogonalLoop=1;jettySize=auto;html=1;entryX=0;entryY=1;entryDx=0;entryDy=0;" edge="1" parent="1" source="hZ7IqxDS2PE7dQ3aLx0Q-27" target="hZ7IqxDS2PE7dQ3aLx0Q-26">
          <mxGeometry relative="1" as="geometry" />
        </mxCell>
        <mxCell id="hZ7IqxDS2PE7dQ3aLx0Q-27" value="Vstup do jeskyně" style="ellipse;whiteSpace=wrap;html=1;rounded=0;shadow=1;comic=0;labelBackgroundColor=none;strokeWidth=1;fontFamily=Verdana;fontSize=12;align=center;" vertex="1" parent="1">
          <mxGeometry x="-390" y="390" width="75" height="50" as="geometry" />
        </mxCell>
        <mxCell id="hZ7IqxDS2PE7dQ3aLx0Q-45" style="edgeStyle=orthogonalEdgeStyle;rounded=0;orthogonalLoop=1;jettySize=auto;html=1;entryX=0.5;entryY=0;entryDx=0;entryDy=0;" edge="1" parent="1" source="hZ7IqxDS2PE7dQ3aLx0Q-28" target="hZ7IqxDS2PE7dQ3aLx0Q-30">
          <mxGeometry relative="1" as="geometry" />
        </mxCell>
        <mxCell id="hZ7IqxDS2PE7dQ3aLx0Q-46" style="edgeStyle=orthogonalEdgeStyle;rounded=0;orthogonalLoop=1;jettySize=auto;html=1;entryX=0.5;entryY=0;entryDx=0;entryDy=0;" edge="1" parent="1" source="hZ7IqxDS2PE7dQ3aLx0Q-28" target="hZ7IqxDS2PE7dQ3aLx0Q-32">
          <mxGeometry relative="1" as="geometry" />
        </mxCell>
        <mxCell id="hZ7IqxDS2PE7dQ3aLx0Q-28" value="úzké tunely" style="ellipse;whiteSpace=wrap;html=1;rounded=0;shadow=1;comic=0;labelBackgroundColor=none;strokeWidth=1;fontFamily=Verdana;fontSize=12;align=center;" vertex="1" parent="1">
          <mxGeometry x="-390" y="590" width="75" height="50" as="geometry" />
        </mxCell>
        <mxCell id="hZ7IqxDS2PE7dQ3aLx0Q-29" value="krystalová sluj" style="ellipse;whiteSpace=wrap;html=1;rounded=0;shadow=1;comic=0;labelBackgroundColor=none;strokeWidth=1;fontFamily=Verdana;fontSize=12;align=center;" vertex="1" parent="1">
          <mxGeometry x="-185" y="760" width="75" height="50" as="geometry" />
        </mxCell>
        <mxCell id="hZ7IqxDS2PE7dQ3aLx0Q-62" style="edgeStyle=orthogonalEdgeStyle;rounded=0;orthogonalLoop=1;jettySize=auto;html=1;entryX=0;entryY=1;entryDx=0;entryDy=0;" edge="1" parent="1" source="hZ7IqxDS2PE7dQ3aLx0Q-30" target="hZ7IqxDS2PE7dQ3aLx0Q-57">
          <mxGeometry relative="1" as="geometry" />
        </mxCell>
        <mxCell id="hZ7IqxDS2PE7dQ3aLx0Q-30" value="světlo na konci tunelu" style="ellipse;whiteSpace=wrap;html=1;rounded=0;shadow=1;comic=0;labelBackgroundColor=none;strokeWidth=1;fontFamily=Verdana;fontSize=12;align=center;" vertex="1" parent="1">
          <mxGeometry x="-315" y="700" width="75" height="50" as="geometry" />
        </mxCell>
        <mxCell id="hZ7IqxDS2PE7dQ3aLx0Q-44" style="edgeStyle=orthogonalEdgeStyle;rounded=0;orthogonalLoop=1;jettySize=auto;html=1;entryX=0.5;entryY=0;entryDx=0;entryDy=0;" edge="1" parent="1" source="hZ7IqxDS2PE7dQ3aLx0Q-31" target="hZ7IqxDS2PE7dQ3aLx0Q-29">
          <mxGeometry relative="1" as="geometry" />
        </mxCell>
        <mxCell id="hZ7IqxDS2PE7dQ3aLx0Q-31" value="Slzavá sluj" style="ellipse;whiteSpace=wrap;html=1;rounded=0;shadow=1;comic=0;labelBackgroundColor=none;strokeWidth=1;fontFamily=Verdana;fontSize=12;align=center;" vertex="1" parent="1">
          <mxGeometry x="-195" y="540" width="75" height="50" as="geometry" />
        </mxCell>
        <mxCell id="hZ7IqxDS2PE7dQ3aLx0Q-32" value="Ozvěnová jeskyně" style="ellipse;whiteSpace=wrap;html=1;rounded=0;shadow=1;comic=0;labelBackgroundColor=none;strokeWidth=1;fontFamily=Verdana;fontSize=12;align=center;" vertex="1" parent="1">
          <mxGeometry x="-450" y="690" width="75" height="50" as="geometry" />
        </mxCell>
        <mxCell id="hZ7IqxDS2PE7dQ3aLx0Q-42" style="edgeStyle=orthogonalEdgeStyle;rounded=0;orthogonalLoop=1;jettySize=auto;html=1;" edge="1" parent="1" source="hZ7IqxDS2PE7dQ3aLx0Q-40" target="hZ7IqxDS2PE7dQ3aLx0Q-28">
          <mxGeometry relative="1" as="geometry" />
        </mxCell>
        <mxCell id="hZ7IqxDS2PE7dQ3aLx0Q-43" style="edgeStyle=orthogonalEdgeStyle;rounded=0;orthogonalLoop=1;jettySize=auto;html=1;entryX=0.5;entryY=0;entryDx=0;entryDy=0;" edge="1" parent="1" source="hZ7IqxDS2PE7dQ3aLx0Q-40" target="hZ7IqxDS2PE7dQ3aLx0Q-31">
          <mxGeometry relative="1" as="geometry" />
        </mxCell>
        <mxCell id="hZ7IqxDS2PE7dQ3aLx0Q-40" value="Rozbočka" style="ellipse;whiteSpace=wrap;html=1;rounded=0;shadow=1;comic=0;labelBackgroundColor=none;strokeWidth=1;fontFamily=Verdana;fontSize=12;align=center;" vertex="1" parent="1">
          <mxGeometry x="-390" y="490" width="75" height="50" as="geometry" />
        </mxCell>
        <mxCell id="hZ7IqxDS2PE7dQ3aLx0Q-53" style="edgeStyle=orthogonalEdgeStyle;rounded=0;orthogonalLoop=1;jettySize=auto;html=1;entryX=0;entryY=0.32;entryDx=0;entryDy=0;entryPerimeter=0;" edge="1" parent="1" source="hZ7IqxDS2PE7dQ3aLx0Q-20" target="hZ7IqxDS2PE7dQ3aLx0Q-13">
          <mxGeometry relative="1" as="geometry" />
        </mxCell>
        <mxCell id="hZ7IqxDS2PE7dQ3aLx0Q-56" style="edgeStyle=orthogonalEdgeStyle;rounded=0;orthogonalLoop=1;jettySize=auto;html=1;entryX=0.333;entryY=1;entryDx=0;entryDy=0;entryPerimeter=0;" edge="1" parent="1" source="hZ7IqxDS2PE7dQ3aLx0Q-18" target="hZ7IqxDS2PE7dQ3aLx0Q-26">
          <mxGeometry relative="1" as="geometry" />
        </mxCell>
        <mxCell id="hZ7IqxDS2PE7dQ3aLx0Q-57" value="Ledová stěna" style="ellipse;whiteSpace=wrap;html=1;rounded=0;shadow=1;comic=0;labelBackgroundColor=none;strokeWidth=1;fontFamily=Verdana;fontSize=12;align=center;" vertex="1" parent="1">
          <mxGeometry x="-5" y="370" width="75" height="50" as="geometry" />
        </mxCell>
        <mxCell id="hZ7IqxDS2PE7dQ3aLx0Q-60" style="edgeStyle=orthogonalEdgeStyle;rounded=0;orthogonalLoop=1;jettySize=auto;html=1;" edge="1" parent="1" source="hZ7IqxDS2PE7dQ3aLx0Q-58" target="hZ7IqxDS2PE7dQ3aLx0Q-57">
          <mxGeometry relative="1" as="geometry" />
        </mxCell>
        <mxCell id="hZ7IqxDS2PE7dQ3aLx0Q-58" value="Lavinové útesy" style="ellipse;whiteSpace=wrap;html=1;rounded=0;shadow=1;comic=0;labelBackgroundColor=none;strokeWidth=1;fontFamily=Verdana;fontSize=12;align=center;" vertex="1" parent="1">
          <mxGeometry x="90" y="440" width="75" height="50" as="geometry" />
        </mxCell>
        <mxCell id="hZ7IqxDS2PE7dQ3aLx0Q-61" style="edgeStyle=orthogonalEdgeStyle;rounded=0;orthogonalLoop=1;jettySize=auto;html=1;entryX=0.68;entryY=0.94;entryDx=0;entryDy=0;entryPerimeter=0;" edge="1" parent="1" source="hZ7IqxDS2PE7dQ3aLx0Q-57" target="hZ7IqxDS2PE7dQ3aLx0Q-26">
          <mxGeometry relative="1" as="geometry" />
        </mxCell>
        <mxCell id="hZ7IqxDS2PE7dQ3aLx0Q-63" style="edgeStyle=orthogonalEdgeStyle;rounded=0;orthogonalLoop=1;jettySize=auto;html=1;entryX=0.267;entryY=1;entryDx=0;entryDy=0;entryPerimeter=0;" edge="1" parent="1" source="hZ7IqxDS2PE7dQ3aLx0Q-29" target="hZ7IqxDS2PE7dQ3aLx0Q-16">
          <mxGeometry relative="1" as="geometry" />
        </mxCell>
      </root>
    </mxGraphModel>
  </diagram>
</mxfile>
